<?xml version="1.0" standalone="yes"?>
<svg xmlns="http://www.w3.org/2000/svg" width="800" height="600">
<path style="fill:#000000; stroke:none;" d="M0 0L0 600L800 600L800 0L0 0z"/>
<path style="fill:#ffffff; stroke:none;" d="M404 344L404 397C404 403.63 405.925 413.961 402.821 419.985C399.095 427.216 390.032 427.434 384 431.649C373.086 439.275 365.025 452.658 364.09 466C363.02 481.261 366.452 496.97 378.04 507.826C403.68 531.847 449.08 520.829 459.229 487C465.022 467.693 458.482 446.101 443 433.329C437.1 428.462 425.791 426.927 422.179 419.981C419.062 413.986 421 403.609 421 397L421 344C427.634 343.945 433.965 342.492 440 339.677C443.328 338.124 447.131 334.702 451 335.046C457.278 335.605 462.03 343.915 466.015 348C475.556 357.781 485.338 367.338 495 377C499.399 381.399 506.18 386.239 508.781 392C510.476 395.755 508.229 400.105 508.04 404C507.604 412.963 508.39 421.556 513.928 428.985C525.125 444.007 549.377 444.555 562.96 432.674C577.766 419.725 575.447 393.028 559.999 381.613C552.739 376.248 543.758 375.39 535 376.093C531.715 376.357 528.291 378.054 525 377.204C519.109 375.682 515.035 369.088 510.996 365C500.728 354.609 490.391 344.272 480 334.004C475.875 329.928 467.957 325.228 467.043 319C466.27 313.734 471.874 307.784 473.616 303C477.081 293.487 477.613 283.026 476.91 273C476.433 266.181 474.4 259.172 471.511 253C469.817 249.381 466.001 244.963 467.414 240.715C469.72 233.778 478.028 228.909 483 223.996C496.076 211.076 509.001 197.999 522 185C526.457 180.543 533.489 170.205 540 169.133C542.843 168.665 545.602 170.677 548 171.891C552.142 173.989 556.444 175.617 561 176.55C581.582 180.765 603.739 172.645 614.536 154C630.395 126.613 614.697 87.2183 583 81.2608C562.224 77.356 539.297 85.8929 528.9 105C525.294 111.628 524.126 118.608 523.286 126C522.217 135.419 529.825 146.794 524.196 155C519.959 161.176 513.274 165.735 508 171L472 207C467.668 211.332 463.369 215.701 459 219.995C456.833 222.125 454.385 225.053 451.285 225.778C446.86 226.813 440.946 221.92 437 220.312C429.05 217.074 420.507 216 412 216C404.089 216 396.422 216.886 389 219.826C381.447 222.818 375.565 229.267 368.015 222.785C355.598 212.127 344.618 198.618 333 187C327.757 181.757 319.327 175.837 316.218 169C314.404 165.008 316.772 160.159 316.961 156C317.347 147.49 316.065 138.889 310.61 132.004C296.307 113.952 264.913 116.895 255.124 138C246.747 156.061 255.534 180.109 276 184.482C280.644 185.474 286.293 185.377 291 184.816C294.402 184.41 297.6 182.822 300.999 184.13C306.729 186.334 310.809 192.788 315.001 197C324.975 207.022 334.942 217.058 345 226.996C349.036 230.984 357.202 235.83 357.904 242C358.471 246.987 352.946 253.277 351.356 258C347.941 268.142 346.906 279.355 348.289 290C349.128 296.455 350.866 303.218 353.89 309C355.568 312.209 358.949 316.137 357.608 320C356.508 323.17 353.29 325.697 350.999 328L335 344L284 395L270 408.999C267.697 411.29 265.17 414.506 262 415.608C256.472 417.529 247.529 410.268 242 408.899C226.675 405.103 209.352 408.078 197.001 418.329C170.151 440.612 177.52 488.83 210 501.536C238.378 512.638 271.575 495.358 276.916 465C278.067 458.459 277.917 452.532 276.69 446C275.559 439.983 273.062 435.586 276.944 430C282.837 421.52 291.748 415.249 299 408L346 361L364 343C366.571 340.433 369.448 336.614 373 335.393C377.092 333.985 381.51 338.049 385 339.677C391.035 342.492 397.366 343.945 404 344z"/>
<path style="fill:#000000; stroke:none;" d="M567 98.4398C562.349 99.1868 557.844 100.873 554.001 103.637C529.463 121.287 543.851 163.686 575 159.546C580.278 158.845 585.652 157.193 589.996 154.061C615.783 135.471 598.362 93.4024 567 98.4398M280 138.653C261.837 144.35 271.952 172.034 289.999 166.347C307.185 160.931 297.371 133.204 280 138.653M409 233.428C389.66 236.168 373.205 247.551 367.746 267C359.418 296.671 383.256 331.707 416 327.395C436.782 324.658 454.707 310.273 458.535 289C463.583 260.953 439.001 229.179 409 233.428M538 393.558C519.741 396.713 523.863 425.369 542 422.782C560.49 420.145 556.257 390.404 538 393.558M224 425.465C192.049 431.213 190.279 478.396 222 486.1C226.022 487.077 229.935 487.117 234 486.384C239.134 485.459 243.846 483.703 247.996 480.471C271.566 462.114 254.094 420.05 224 425.465M408 441.464C402.643 442.402 397.326 444.076 393.039 447.529C368.507 467.291 387.473 507.556 418 502.242C422.366 501.482 426.315 500.069 429.985 497.532C455.616 479.817 439.572 435.934 408 441.464z"/>
</svg>
