<?xml version="1.0" standalone="yes"?>
<svg xmlns="http://www.w3.org/2000/svg" width="225" height="225">
<path style="fill:#000000; stroke:none;" d="M0 0L0 225L108 225C105.21 222.48 102.002 220.374 100.14 216.996C97.8552 212.852 98.3886 207.991 94.7716 204.518C89.8589 199.801 82.8692 196.891 77 193.576C67.6146 188.273 58.4401 182.493 49 177.312C45.997 175.664 42.5158 173.507 39 173.397C31.2582 173.155 26.2615 177.934 19.1883 171.606C10.4813 163.817 14.7262 151.495 25 148L25 107C25 99.7962 25.7242 92.1522 24.8148 85.0008C23.6446 75.7975 11.6968 71.3255 14.8079 61C16.5179 55.3245 22.723 49.4552 29 49.9375C34.0402 50.3248 37.75 53.5045 43 51.8804C49.9824 49.7204 55.7855 44.515 62 40.8611C72.2213 34.8514 84.6862 29.7978 93.8912 22.3627C98.1042 18.9597 97.3506 14.5639 99.1481 10C100.954 5.41504 104.468 2.54163 109 1C105.301 -0.552017 100.983 0 97 0L76 0L0 0z"/>
<path style="fill:#ffffff; stroke:none;" d="M25 148C13.6133 150.299 9.90754 166.36 20.0941 172.991C27.4411 177.773 35.6063 171.722 43 174.811C62.8408 183.101 80.2963 197.779 99 208C98.6303 211.33 98.5599 214.914 100.175 217.985C107.613 232.124 129.251 222.995 126 208C130.578 206.919 135.684 201.172 140 198.604C153.231 190.732 167.05 181.706 181 175.267C188.701 171.712 197.394 178.019 204.815 172.852C214.659 165.997 211.583 150.339 200 148L200 107C200 99.888 199.061 92.0128 200.329 85C202.185 74.7413 215.296 70.1364 209.427 58.0039C206.554 52.0628 200.359 49.3217 194 50.3256C190.888 50.8169 187.784 52.4285 184.576 51.9113C178.065 50.8617 171.571 45.2834 166 42.0108C158.708 37.7276 151.439 33.3328 144 29.3086C139.24 26.7336 134.028 24.6759 130.109 20.8148C123.316 14.1222 127.669 3.31422 116 0.533951C109.519 -1.01012 102.514 1.92995 99.5725 8.00386C97.6928 11.8853 98.3799 16.4043 95.5664 19.8951C91.6812 24.7155 84.2845 27.3917 79 30.4213C67.6179 36.9467 56.1356 46.2693 44 51.1057C34.165 55.0253 23.4031 44.5332 16.0895 57.0154C8.86402 69.3472 22.7756 74.5564 24.6705 85.0008C25.9424 92.0109 25 99.8901 25 107L25 148z"/>
<path style="fill:#000000; stroke:none;" d="M116 0C119.664 2.58742 123.404 4.71129 125.347 9.00076C127.32 13.356 126.483 18.0942 130.148 21.6713C134.927 26.3362 142.249 28.8691 148 32.1505C158.319 38.038 168.337 44.9619 179 50.1898C188.975 55.0806 198.06 45.6456 206.775 55.1049C208.097 56.5388 209.147 58.1808 209.851 60C213.957 70.6022 201.981 74.8979 200.329 84.0008C199.058 91.0109 200 98.8901 200 106L200 148C210.4 151.538 214.171 163.581 205.671 171.468C197.592 178.963 190.53 171.03 182 174.356C174.184 177.403 167.211 182.778 160 186.988C151.744 191.809 143.057 195.879 135.001 201.054C125.439 207.196 127.488 220.092 116 224C119.699 225.552 124.017 225 128 225L149 225L225 225L225 0L116 0M109.134 9.04321C102.212 12.8049 107.991 23.6169 114.852 19.8056C121.3 16.2235 115.811 5.41504 109.134 9.04321z"/>
<path style="fill:#202020; stroke:none;" d="M126 12L126 15C126.696 13.4463 126.696 13.5537 126 12z"/>
<path style="fill:#515151; stroke:none;" d="M126 15L127 16L126 15z"/>
<path style="fill:#b0b0b0; stroke:none;" d="M126 16L127 17L126 16z"/>
<path style="fill:#000000; stroke:none;" d="M100.999 27.6412C95.969 28.2805 91.2474 32.4892 87 34.9892C77.7248 40.4486 68.4104 45.9163 59 51.1389C54.1856 53.8107 47.749 56.0671 44.7824 61.0401C39.5257 69.852 55.3819 75.9691 61 78.9715C63.4706 80.2917 66.1036 81.6853 69 81.4244C72.8938 81.0736 76.7259 78.3326 80 76.3966C86.3069 72.6673 92.5961 68.8647 99 65.3048C102.705 63.2449 106.633 61.1924 108.258 56.9961C109.111 54.7935 108.987 52.3176 108.999 50C109.033 43.6722 111.753 26.2746 100.999 27.6412M121.055 27.8356C113.451 30.302 115.332 45.952 115.926 52C117.185 64.8163 134.976 70.5823 145 76.2809C149.669 78.9351 154.386 82.6344 160 80.8765C163.271 79.8521 166.104 77.8243 169 76.0617C173.187 73.514 179.703 71.2661 181.149 65.9961C182.452 61.2471 177.438 57.9399 173.999 55.865C164.758 50.2887 155.255 45.1533 146 39.6003C140.035 36.0212 128.588 25.3924 121.055 27.8356z"/>
<path style="fill:#e7e7e7; stroke:none;" d="M27 49C28.2483 49.6848 28.5485 49.7488 30 50C28.7516 49.3152 28.4516 49.2512 27 49M195 49C196.248 49.6848 196.549 49.7488 198 50C196.752 49.3152 196.452 49.2512 195 49z"/>
<path style="fill:#000000; stroke:none;" d="M25.1127 59.0432C18.352 62.6672 24.4358 72.8638 30.8519 69.6381C37.443 66.3244 31.7511 55.4847 25.1127 59.0432M193.113 59.0324C186.388 62.7289 192.403 72.812 198.866 69.6381C205.933 66.1675 199.915 55.2934 193.113 59.0324M109 68.6489C99.6582 71.4361 90.5532 79.0726 82 83.7701C78.4898 85.6979 74.166 87.9309 72.831 92.0147C72.1103 94.2193 72.6421 96.7213 72.4869 99C71.8687 108.078 71.9877 116.94 72.6752 126C72.9384 129.469 71.8236 132.813 73.7569 135.985C78.0053 142.956 87.3524 145.499 94 149.453C100.089 153.075 107.307 159.87 115 157.802C124.725 155.187 134.226 147.172 143 142.305C147.03 140.07 151.253 137.777 152.566 132.999C155.166 123.543 153.004 110.794 153 101C152.998 96.7682 153.293 92.5856 150.566 89.0432C145.808 82.8601 137.455 80.637 131 76.7932C124.298 72.802 117.434 66.1326 109 68.6489M32 78L32 109L32 129C32 133.917 30.5888 141.601 33.7423 145.772C39.4705 153.348 50.456 144.649 55.9992 141.269C58.3691 139.823 60.7025 138.329 62.2577 135.957C65.6412 130.795 64 121.905 64 116C64 108.695 65.6506 99.0268 63.3472 92.0401C62.0166 88.004 58.3793 86.0822 54.9992 83.9498C46.6661 78.6928 41.8005 75.7662 32 78M193 78C183.2 75.7662 178.334 78.6928 170.001 83.9498C167.02 85.8302 163.418 87.6133 162.049 91.0934C161.036 93.6684 161.826 96.3385 161.742 99C161.56 104.681 160.998 110.281 161 116C161.002 121.363 159.888 131.4 162.757 135.957C165.869 140.9 173.082 143.512 178 146.28C180.122 147.474 182.487 149.198 184.999 149.353C187.185 149.489 189.143 148.363 190.566 146.771C194.474 142.401 193 134.406 193 129L193 109L193 78z"/>
<path style="fill:#ffffff; stroke:none;" d="M108 89.4676C84.942 93.8251 82.4974 127.784 105 135.084C109.055 136.4 113.856 136.212 118 135.355C139.463 130.918 141.712 99.0793 122 90.5332C117.721 88.6779 112.535 88.6106 108 89.4676z"/>
<path style="fill:#ababab; stroke:none;" d="M153 94L153 97C153.696 95.4463 153.696 95.5537 153 94z"/>
<path style="fill:#555555; stroke:none;" d="M72 95L72 100C72.8299 97.9695 72.8299 97.0305 72 95z"/>
<path style="fill:#d5d5d5; stroke:none;" d="M161 95L161 102C162.059 99.4657 162.059 97.5343 161 95z"/>
<path style="fill:#000000; stroke:none;" d="M112 96.7292C91.9513 97.3144 93.1959 128.812 113 127.953C133.026 127.084 131.707 96.1539 112 96.7292z"/>
<path style="fill:#8c8c8c; stroke:none;" d="M153.333 97.6667C153.278 97.7223 153.222 98.7778 153.667 98.3333C153.722 98.2778 153.778 97.2222 153.333 97.6667z"/>
<path style="fill:#ababab; stroke:none;" d="M153 99L153 104C153.83 101.969 153.83 101.03 153 99z"/>
<path style="fill:#bbbbbb; stroke:none;" d="M110 101C111.769 101.779 113.036 101.912 115 102C113.231 101.221 111.964 101.088 110 101z"/>
<path style="fill:#ffffff; stroke:none;" d="M108.019 102.742C95.7298 107.619 104.199 127.331 116.981 122.258C129.27 117.381 120.801 97.6692 108.019 102.742z"/>
<path style="fill:#d5d5d5; stroke:none;" d="M153 104L153 107C153.696 105.446 153.696 105.554 153 104z"/>
<path style="fill:#e6e6e6; stroke:none;" d="M89.3333 108.667C89.2778 108.722 89.2222 109.778 89.6667 109.333C89.7222 109.278 89.7778 108.222 89.3333 108.667z"/>
<path style="fill:#303030; stroke:none;" d="M135 109L136 110L135 109z"/>
<path style="fill:#bbbbbb; stroke:none;" d="M101 110L101 115C101.83 112.969 101.83 112.03 101 110M123 110L123 115C123.83 112.969 123.83 112.03 123 110z"/>
<path style="fill:#9d9d9d; stroke:none;" d="M135 110L136 111L135 110z"/>
<path style="fill:#e5e5e5; stroke:none;" d="M89.3333 115.667C89.2778 115.722 89.2222 116.778 89.6667 116.333C89.7222 116.278 89.7778 115.222 89.3333 115.667z"/>
<path style="fill:#e8e8e8; stroke:none;" d="M64 120L64 132C65.5124 128.396 65.5124 123.604 64 120z"/>
<path style="fill:#d5d5d5; stroke:none;" d="M71 120L71 123C71.6961 121.446 71.6961 121.554 71 120z"/>
<path style="fill:#e8e8e8; stroke:none;" d="M160 120L160 132C162.711 128.403 161.885 123.923 160 120z"/>
<path style="fill:#ababab; stroke:none;" d="M71 123L71 132C72.2561 129.006 72.2561 125.994 71 123z"/>
<path style="fill:#bdbdbd; stroke:none;" d="M110 123C111.769 123.779 113.036 123.912 115 124C113.231 123.221 111.964 123.088 110 123z"/>
<path style="fill:#808080; stroke:none;" d="M72 124L73 125L72 124z"/>
<path style="fill:#555555; stroke:none;" d="M72 125L72 131C72.9511 128.715 72.9511 127.285 72 125z"/>
<path style="fill:#d6d6d6; stroke:none;" d="M115.667 135.333C115.222 135.778 116.278 135.722 116.333 135.667C116.778 135.222 115.722 135.278 115.667 135.333z"/>
<path style="fill:#000000; stroke:none;" d="M67 144.715C62.9994 145.138 59.4375 147.829 56 149.691C51.4664 152.148 43.9214 154.825 43.6227 161.003C43.3911 165.792 48.4963 168.647 52 170.796C62.184 177.042 72.6255 182.927 83 188.85C87.9999 191.704 96.8838 199.231 102.985 197.929C105.868 197.314 107.815 194.703 108.566 191.996C110.154 186.276 110.255 174.553 108.106 169.004C106.325 164.403 102.038 162.4 98 160.14C91.2802 156.377 84.6949 152.385 78 148.579C74.6655 146.684 71.0169 144.289 67 144.715M155 144.731C145.144 146.752 134.755 155.839 126 160.695C122.294 162.751 118.366 164.81 116.742 169.004C115.889 171.207 116.013 173.682 116.001 176C115.967 182.458 113.801 200.073 125 198.102C130.046 197.214 134.714 193.186 139 190.601C147.906 185.229 156.917 179.929 166 174.862C170.827 172.169 177.786 170.041 180.528 164.826C185.33 155.693 168.913 149.491 163 146.49C160.48 145.211 157.872 144.143 155 144.731M25.2284 156.032C18.5563 159.969 25.3808 170.523 31.7176 166.102C37.5819 162.01 31.3499 152.421 25.2284 156.032M193.228 156.032C186.494 160.044 193.356 169.791 199.772 165.968C206.506 161.956 199.644 152.209 193.228 156.032z"/>
<path style="fill:#a9a9a9; stroke:none;" d="M26 175C27.769 175.779 29.0359 175.912 31 176C29.231 175.221 27.9641 175.088 26 175M194 175C195.769 175.779 197.036 175.912 199 176C197.231 175.221 195.964 175.088 194 175z"/>
<path style="fill:#000000; stroke:none;" d="M110.109 204.762C102.729 207.582 107.376 219.335 114.786 216.242C121.829 213.303 117.182 202.059 110.109 204.762z"/>
<path style="fill:#dbdbdb; stroke:none;" d="M98.3333 208.667C98.2777 208.722 98.2223 209.778 98.6667 209.333C98.7222 209.278 98.7778 208.222 98.3333 208.667z"/>
<path style="fill:#dfdfdf; stroke:none;" d="M126.333 208.667C126.278 208.722 126.222 209.778 126.667 209.333C126.722 209.278 126.778 208.222 126.333 208.667z"/>
<path style="fill:#b7b7b7; stroke:none;" d="M98.3333 211.667C98.2778 211.722 98.2222 212.778 98.6667 212.333C98.7222 212.278 98.7778 211.222 98.3333 211.667z"/>
</svg>
