<?xml version="1.0" standalone="yes"?>
<svg xmlns="http://www.w3.org/2000/svg" width="512" height="512">
<path style="fill:#000000; stroke:none;" d="M0 0L0 52C0 58.5011 -1.92754 68.671 0.603395 74.7145C3.0745 80.6152 11.3579 85.1782 15.6752 89.8302C24.5863 99.4325 33.7318 108.732 43 118C48.1398 123.14 53.0481 128.807 59 133C69.3733 117.273 79.1569 101.883 92.0895 88C127.344 50.1538 173.342 25.7004 224 16.2608C300.95 1.92188 380.367 25.8865 437 80.0394C454.974 97.2263 470.011 117.429 482.281 139C497.744 166.186 510.979 200.302 511 232C513.599 225.806 512 216.686 512 210L512 163L512 0L0 0z"/>
<path style="fill:#ffffff; stroke:none;" d="M59 133C46.6951 120.695 34.1559 108.582 22.0934 96.0394C15.3168 88.9933 9.06742 80.2034 0 76L0 244L167 244C164.091 235.373 156.332 230.015 150 223.961C138.431 212.898 127.318 201.318 116 190C111.136 185.136 98.7597 176.547 98.6937 169C98.653 164.354 103.064 159.558 105.576 156C112.598 146.052 119.696 136.613 127.884 127.576C166.728 84.7024 221.209 65.3282 278 66.0038C376.958 67.1811 464.247 164.118 459.961 262C457.383 320.862 425.856 374.606 379 409.471C346.129 433.929 301.543 450.784 260 446.83C206.834 441.771 159.303 420.084 124.272 379C114.359 367.375 105.28 354.602 98.2585 341C95.2709 335.212 92.6307 323.815 86.8117 320.457C81.5679 317.431 74.6105 319.526 69 319.91C57.1048 320.725 44.9237 320 33 320C33.6271 334.383 41.6389 349.207 47.7029 362C67.8313 404.463 100.757 440.255 141 464.4C231.136 518.48 350.141 510.068 430 440.711C447.31 425.676 461.908 408.261 474.308 389C488.435 367.056 499.287 342.347 505.625 317C531.072 215.239 487.598 105.818 399 49.4359C308.372 -8.23773 185.646 2.1488 106 73.831C87.6074 90.3846 69.5812 110.337 59 133z"/>
<path style="fill:#000000; stroke:none;" d="M167 244L0 244L0 512L512 512L512 282C509.207 288.642 509.438 297.809 508 305C505.34 318.303 501.364 331.302 496.575 344C476.59 396.992 437.944 440.576 389 468.573C290.248 525.06 163.188 501.94 86.9144 419C68.4788 398.953 53.8919 376.011 43.1505 351C38.9364 341.188 33.8793 330.765 33 320C44.9663 320 57.0457 320.484 69 319.961C74.5194 319.719 80.6975 317.609 85.9059 320.457C91.7795 323.669 93.907 333.322 96.7531 339C103.117 351.698 111.048 364.035 120.084 375C152.168 413.936 196.565 439.663 247 445.715C354.178 458.574 455.256 370.43 459.961 263C462.586 203.043 431.536 142.455 385 105.665C316.47 51.4874 215.635 53.5733 148 108.001C132.745 120.277 119.294 134.772 108.33 151C104.924 156.042 98.4168 162.524 98.3573 169C98.2824 177.135 110.805 185.805 116 191C126.662 201.662 137.207 212.457 148 222.985C154.851 229.668 162.552 235.287 167 244z"/>
<path style="fill:#ffffff; stroke:none;" d="M230 140L230 237C230 242.954 230.395 249.069 229.83 255C229.272 260.867 227.555 267.775 231.514 272.896C237.417 280.533 250.76 285.511 259 290.397C279.728 302.686 300.369 315.149 321 327.601C327.983 331.816 334.522 337.002 342 340.334C344.598 341.492 347.964 343.137 350.895 342.589C354.411 341.931 355.969 337.73 357.604 335C361.718 328.132 370.355 319.205 371.353 311.043C371.777 307.579 368.538 306.132 365.995 304.695C360.003 301.309 353.904 298.093 348 294.551C331.561 284.688 315.437 274.316 299 264.449C290.788 259.519 278.973 254.854 272.558 247.671C266.305 240.67 269 226.697 269 218L269 140L230 140z"/>
</svg>
