<?xml version="1.0" standalone="yes"?>
<svg xmlns="http://www.w3.org/2000/svg" width="233" height="194">
<path style="fill:#000000; stroke:none;" d="M0 0L0 194L233 194L233 0L52 0C53.1282 2.74524 54.1936 6.38808 56.4985 8.39737C62.6399 13.7513 70.9699 10.4704 74 4C80.5944 6.40048 85.6973 11.1951 92 14C90.8443 16.6834 88.2333 20.0159 88.2878 23C88.3519 26.5082 92.7162 32.1828 96.0934 33.1111C98.6108 33.8031 101.323 32.5338 103.697 34.0316C107.365 36.3468 108.64 45.083 107.678 48.9846C106.427 54.064 100.201 54.2003 99.1088 59.108C98.5065 61.8141 97.9009 65.3965 99.0664 68C100.193 70.5177 102.883 72.2694 103.554 75C104.505 78.8709 98.5743 87.1996 95.4823 89.2917C92.2778 91.4598 89.2505 88.0921 86 87.9514C83.0733 87.8247 80.2188 90.1588 78.152 92.0046C74.256 95.4842 77.1001 98.6872 75.3819 102.772C73.7341 106.689 65.7033 107.47 62.0008 107.424C57.143 107.363 56.1528 103.478 53.2006 100.564C51.316 98.7037 48.5136 98.2537 46.0039 97.8094C39.4224 96.6443 38.8765 102.229 33.4236 103.27C30.0642 103.911 22.5106 98.2162 20.6073 95.6713C17.3397 91.3024 22.2888 86.6373 19.6813 82.0008C18.3939 79.7115 16.278 76.6745 13.7909 75.6034C11.3718 74.5616 8.54907 75.3593 6.21373 73.9722C3.21231 72.1896 2.06922 68.2161 1.46759 65C-0.125814 56.4823 5.18767 57.2907 8.98688 51.6096C13.3497 45.0856 10.5207 38.0536 4 35C6.1062 29.9424 9.31021 21.2684 15.0147 19.3565C17.7764 18.4309 20.2703 20.3581 23 20.3434C25.8171 20.3282 28.707 18.4601 30.8511 16.767C35.0126 13.4806 32.0669 10.2605 33.6427 6.14737C35.3428 1.70998 43.9813 1.32825 48 1C43.2801 -0.98056 37.0802 0 32 0L0 0z"/>
<path style="fill:#365fb2; stroke:none;" d="M4 35C5.72871 36.2206 7.37974 37.3523 8.78627 38.9691C11.8785 42.5238 11.0715 49.108 7.68364 52.3627C5.98646 53.9931 3.403 54.6609 2.02778 56.6373C0.474024 58.8704 0.928494 62.473 1.30093 65C1.71347 67.7992 2.46674 71.4008 4.65201 73.3966C6.98401 75.5265 10.19 74.4969 12.8958 75.6034C15.7326 76.7635 18.1201 80.2347 19.5733 82.8302C22.0516 87.2565 17.0179 92.0632 20.6034 96.4715C22.8607 99.2468 30.2658 104.499 33.9961 103.553C39.6835 102.111 40.1464 96.7574 47 98.2199C53.0232 99.5052 53.3251 104.419 58.108 106.958C61.2411 108.62 65.7277 107.191 68.9992 106.575C70.9628 106.205 73.6333 105.954 74.9722 104.262C76.7961 101.957 75.3545 98.6954 76.0278 96.0934C76.8078 93.0786 80.3229 90.627 83 89.3465C87.1322 87.3698 89.812 90.9188 93.8156 90.4691C97.9421 90.0056 102.676 81.551 103.856 78C105.305 73.636 101.546 71.4162 99.6883 68C98.3096 65.4641 98.4702 61.8331 99.3032 59.108C100.422 55.4467 104.184 55.2465 106.397 52.5818C108.314 50.2727 108.121 46.8076 107.826 44C107.52 41.0822 106.999 35.9169 104.436 34.0278C102.306 32.458 99.4306 33.4229 97.0401 32.821C93.6624 31.9704 89.1988 26.9231 88.6867 23.4244C88.272 20.5906 91.1916 16.7475 92 14C86.2243 10.1961 80.8813 5.57451 74 4C70.0075 9.65428 62.5948 13.9259 56.4985 7.6821C53.4696 4.58 53.294 0.119415 47.9846 0.497681C44.4475 0.74968 35.2909 1.72643 33.6073 5.31404C31.5096 9.78375 34.793 13.2191 29.9375 16.7662C27.9657 18.2067 25.5114 19.7903 23 19.8812C20.2746 19.9798 17.7732 18.0955 15.0147 18.7886C9.03209 20.2916 5.51539 29.7397 4 35z"/>
<path style="fill:#000000; stroke:none;" d="M39 8C39.1889 10.4836 39.9965 13.4881 39.1682 15.9066C37.7616 20.0135 29.097 25.7479 25 26.6836C22.5519 27.2428 20.4368 25.7622 18.0401 25.8457C14.1823 25.98 12.4298 30.0061 11 33C17.3083 37.5927 19.1843 48.0321 14.2577 54.787C12.2916 57.4828 8.9602 58.7582 6 60L8 69C16.2292 69.0236 25.6954 74.8121 27.0324 84C27.4476 86.8534 25.6535 90.2396 25 93C27.3216 94.2584 30.1644 96.5234 32.9606 95.6991C35.7116 94.8881 37.1689 91.9671 40.0895 91.4074C48.2559 89.8426 57.6655 94.1629 60 102C62.8075 101.776 68.0508 101.849 69.3071 98.686C70.4143 95.8981 68.5725 93.0438 70.6181 90.3897C72.8732 87.4635 81.3453 81.5085 85 81.2369C87.6602 81.0392 90.6175 83.0115 93 84L98 77C96.238 74.456 93.6214 71.9686 92.6173 69C89.8191 60.7276 95.1902 51.3214 103 49L101 39C92.4887 38.9756 84.5682 33.8279 82.0116 25C81.2698 22.4389 82.9726 20.5057 83.0386 18.0401C83.1418 14.1858 78.9189 12.394 76 11C68.2043 20.6716 53.0262 17.5126 49 6C45.6882 6.85699 42.3923 7.56181 39 8z"/>
<path style="fill:#365fb2; stroke:none;" d="M46 22.5185C23.368 27.4271 14.3282 57.3371 28.5293 74.9606C37.4412 86.0202 50.7793 88.51 64 85.4853C85.9937 80.4536 94.3006 51.5753 81.2106 34.0394C73.2995 23.4411 58.5553 19.7955 46 22.5185z"/>
<path style="fill:#000000; stroke:none;" d="M63 77C59.4748 76.1532 55.6704 77.2031 52 76.9066C45.8749 76.412 40.2462 72.9163 36.6381 67.9853C25.5462 52.8268 36.8234 30.6248 56 31.4707C70.3955 32.1057 80.2528 47.5633 76.1998 61C74.3078 67.2725 69.5047 71.816 64 75C72.6832 75.713 78.7806 62.2917 78.9452 55C79.2607 41.019 67.004 29.1235 53 30.1852C28.12 32.0714 21.8178 66.3098 45 76.4676C50.9419 79.0712 56.8865 78.5054 63 77z"/>
<path style="fill:#365fb2; stroke:none;" d="M148 37C147.923 46.3491 146.729 50.2215 138 53.8711C135.783 54.7982 133.497 56.1828 131 55.6751C125.213 54.4985 122.225 48.0226 116 52.4383C112.369 55.0134 103.312 62.195 103.192 67C103.097 70.8084 107.588 73.5074 108.647 77C109.759 80.6661 106.663 86.7722 104.725 89.8665C100.288 96.954 90.2026 90.605 90.0046 101.004C89.9211 105.392 88.1527 115.695 91.0278 119.258C93.326 122.106 98.7684 120.958 101.867 122.514C105.6 124.389 107.246 130.297 108.682 133.961C111.04 139.974 104.39 141.725 103.306 147C102.313 151.836 110.834 158.086 114 160.891C121.47 167.512 123.537 160.842 131 159.325C133.484 158.82 135.804 160.184 138 161.14C146.34 164.772 147.927 169.152 148 178C154.588 178 167.427 180.436 172.566 175.486C176.676 171.527 173.983 165.937 180.019 163.105C183.24 161.594 188.394 158.711 192 159.694C196.065 160.801 199.404 166.494 204 164.252C208.397 162.108 212.71 156.608 215.937 153C217.45 151.308 219.198 149.459 218.694 147C217.491 141.135 211.667 139.781 214.173 133C215.442 129.565 216.753 124.34 220.225 122.514C223.305 120.894 228.666 122.116 230.972 119.258C232.465 117.408 231.995 114.201 232 112L232 94C222.322 94 218.941 93.2698 215.132 84C214.217 81.7745 212.911 79.4825 213.555 77C214.481 73.4252 219.004 70.8838 218.833 67C218.627 62.3376 211.123 56.9867 208 54.0201C206.359 52.461 204.443 50.2784 202 50.1674C196.12 49.9005 193.692 57.3268 187 55.0694C183.574 53.9138 178.138 52.0002 176.178 48.7755C174.173 45.4756 175.273 41.4059 171.772 38.858C166.187 34.7939 154.582 37 148 37z"/>
<path style="fill:#000000; stroke:none;" d="M52 38.4437C31.8221 41.4851 35.7071 73.203 56 70.6312C77.5879 67.8952 73.8599 35.1487 52 38.4437M96 100L96 115C99.5157 115.655 104.643 115.481 107.49 117.858C110.44 120.321 111.356 125.6 112.862 129C114.045 131.671 116.527 134.95 116.197 138C115.659 142.969 108.812 145.668 112.377 150.999C113.086 152.061 114.077 153.086 115.02 153.941C116.437 155.225 117.997 156.822 120 157.083C124.986 157.73 127.573 151.102 133 152.496C138.25 153.845 148.004 157.754 151.258 162.213C153.085 164.717 152.164 169.046 154.603 170.972C157.714 173.429 165.227 172 169 172C169.215 161.922 173.489 159.511 182 155.688C184.803 154.429 187.793 152.365 191 152.607C197.888 153.128 200.368 160.192 206.98 153.938C207.888 153.078 208.973 152.078 209.627 150.999C213.033 145.383 206.817 143.198 206.157 138C205.802 135.212 207.891 132.434 208.961 130C210.559 126.36 211.36 120.492 214.51 117.858C217.353 115.48 222.487 115.655 226 115L226 100C215.968 99.2005 213.252 94.5526 209.219 86C208.071 83.5664 206.118 80.7907 206.15 78C206.231 71.0321 214.431 68.9179 207.937 62.0201C207.075 61.1049 206.075 60.031 204.999 59.3619C199.145 55.7195 196.627 62.6147 191 62.6975C187.848 62.744 184.775 60.5508 182 59.3125C173.442 55.4928 169.217 53.1834 169 43C165.218 43 157.725 41.5736 154.603 44.0278C151.947 46.1149 152.731 51.0796 150.486 53.7863C147.126 57.8381 138.04 61.2088 133 62.5039C125.27 64.4901 122.772 54.1128 115.02 61.0625C114.071 61.9134 113.091 62.9435 112.373 64.0008C108.944 69.0492 114.679 72.1788 115.465 77C115.987 80.2021 114.067 83.175 112.872 86C108.81 95.6027 106.684 98.6486 96 100z"/>
<path style="fill:#365fb2; stroke:none;" d="M149 66.5293C123.318 72.4247 111.002 105.791 123.349 128C133.389 146.06 153.489 152.828 173 148.319C200.781 141.899 212.087 106.818 196.895 84C186.498 68.3841 166.985 62.4009 149 66.5293z"/>
<path style="fill:#000000; stroke:none;" d="M160 74.4398C147.407 75.8455 135.983 82.0231 130.519 94C120.25 116.505 139.296 143.441 164 140.826C180.078 139.125 194.094 125.419 194.895 109C195.78 90.8744 178.631 72.3602 160 74.4398z"/>
<path style="fill:#365fb2; stroke:none;" d="M154 79.5285C134.673 83.9018 125.333 107.668 136.8 123.999C144.126 134.432 156.804 138.088 169 135.482C187.112 131.612 195.654 108.734 186.633 93C180.077 81.5639 166.62 76.6729 154 79.5285z"/>
<path style="fill:#000000; stroke:none;" d="M160 85.5147C156.576 85.7421 153.029 86.2808 150.004 87.9699C129.1 99.6435 139.709 131.338 163 129.906C191.43 128.158 188.757 83.6045 160 85.5147z"/>
</svg>
